# xmcd CD database file
# Copyright (C) 1995-1998 Ti Kan
#
# Track frame offsets:
#	150
#	21450
#	45820
#
# Disc length: 893 seconds
#
# Revision: 3
# Processed by: cddbd v1.5.1PL0 Copyright (c) Steve Scherf et al.
# Submitted via: CDex 1.3.1JRelease
#
DISCID=19037b03
DTITLE=林原めぐみ - 春猫不思議月夜 -おしえてHappiness-
DYEAR=1992
DGENRE=Blues
TTITLE0=春猫不思議月夜 -おしえてHappiness-
TTITLE1=Touch me softly
TTITLE2=春猫不思議月夜 -おしえてHappiness- (オリジナルカラオケ)
EXTD=YEAR: 1992 ID3G:   0
EXTT0=
EXTT1=
EXTT2=
PLAYORDER=
